<svg id="Layer_1" data-name="Layer 1" xmlns="http://www.w3.org/2000/svg" viewBox="0 0 375.6 30.6"><defs><style>.cls-1{fill:#0274be;}</style></defs><path class="cls-1" d="M75.7,310.2a10.4,10.4,0,0,1,1.9-6.4,6.4,6.4,0,0,1,9.8-.2v-1.9h2.7v16.8a6.6,6.6,0,0,1-2,5.2,6.9,6.9,0,0,1-5.2,1.9,9.5,9.5,0,0,1-3.7-.8,5.8,5.8,0,0,1-2.7-2.1l1.5-1.8a5.9,5.9,0,0,0,4.6,2.3,4.2,4.2,0,0,0,4.6-4.6v-1.4a6.3,6.3,0,0,1-4.8,2,5.9,5.9,0,0,1-4.9-2.4A11.2,11.2,0,0,1,75.7,310.2Zm3,.3a7.5,7.5,0,0,0,1.2,4.5,3.9,3.9,0,0,0,3.3,1.7,4.3,4.3,0,0,0,4.1-2.5v-7.9a4.4,4.4,0,0,0-4.1-2.4,3.7,3.7,0,0,0-3.3,1.7A8.2,8.2,0,0,0,78.7,310.5Z" transform="translate(-75.7 -295.5)"/><path class="cls-1" d="M94.7,297.2a1.6,1.6,0,0,1,.4-1.2,1.9,1.9,0,0,1,2.6,0,1.6,1.6,0,0,1,.4,1.2,1.7,1.7,0,0,1-.4,1.2,2.3,2.3,0,0,1-2.6,0A1.7,1.7,0,0,1,94.7,297.2Zm3.1,21.7H94.9V301.7h2.9Z" transform="translate(-75.7 -295.5)"/><path class="cls-1" d="M101.8,310.2a9.8,9.8,0,0,1,1.9-6.4,5.8,5.8,0,0,1,4.9-2.4,5.9,5.9,0,0,1,4.9,2.2v-1.9h2.7v16.8a7,7,0,0,1-2,5.2,7.2,7.2,0,0,1-5.3,1.9,9.4,9.4,0,0,1-3.6-.8,5.8,5.8,0,0,1-2.7-2.1l1.5-1.8a5.9,5.9,0,0,0,4.6,2.3,4.7,4.7,0,0,0,3.4-1.2,4.5,4.5,0,0,0,1.2-3.4v-1.4a6.3,6.3,0,0,1-4.8,2,5.8,5.8,0,0,1-4.9-2.4A10.5,10.5,0,0,1,101.8,310.2Zm3,.3A7.5,7.5,0,0,0,106,315a3.8,3.8,0,0,0,3.3,1.7,4.4,4.4,0,0,0,4.1-2.5v-7.9a4.4,4.4,0,0,0-4.1-2.4,3.7,3.7,0,0,0-3.3,1.7A8.2,8.2,0,0,0,104.8,310.5Z" transform="translate(-75.7 -295.5)"/><path class="cls-1" d="M120.7,297.2a1.7,1.7,0,0,1,.5-1.2,1.4,1.4,0,0,1,1.3-.5,1.5,1.5,0,0,1,1.3.5,1.6,1.6,0,0,1,.4,1.2,1.7,1.7,0,0,1-.4,1.2,1.8,1.8,0,0,1-1.3.4,1.7,1.7,0,0,1-1.3-.4A1.8,1.8,0,0,1,120.7,297.2Zm3.2,21.7H121V301.7h2.9Z" transform="translate(-75.7 -295.5)"/><path class="cls-1" d="M128.7,317.3a1.6,1.6,0,0,1,.4-1.2,1.6,1.6,0,0,1,1.4-.5,1.4,1.4,0,0,1,1.3.5,1.7,1.7,0,0,1,0,2.4,1.4,1.4,0,0,1-1.3.5,1.6,1.6,0,0,1-1.4-.5A1.6,1.6,0,0,1,128.7,317.3Z" transform="translate(-75.7 -295.5)"/><path class="cls-1" d="M145.4,304.4l-1.4-.2a3.8,3.8,0,0,0-3.9,2.5v12.2h-3V301.7H140v2a4.8,4.8,0,0,1,4.1-2.3l1.3.2Z" transform="translate(-75.7 -295.5)"/><path class="cls-1" d="M154.9,319.2a7.8,7.8,0,0,1-5.7-2.3,8.7,8.7,0,0,1-2.1-6.1v-.6a10.6,10.6,0,0,1,.9-4.5,8,8,0,0,1,2.8-3.2,7,7,0,0,1,3.8-1.1,6.5,6.5,0,0,1,5.2,2.2,9.8,9.8,0,0,1,1.8,6.3v1.2H150a5.6,5.6,0,0,0,1.5,4.1,4.4,4.4,0,0,0,3.6,1.6,5.3,5.3,0,0,0,2.6-.6,7.7,7.7,0,0,0,1.9-1.7l1.8,1.4A7.3,7.3,0,0,1,154.9,319.2Zm-.3-15.4a3.8,3.8,0,0,0-3,1.3,6.6,6.6,0,0,0-1.5,3.6h8.6v-.2a6.1,6.1,0,0,0-1.2-3.5A3.7,3.7,0,0,0,154.6,303.8Z" transform="translate(-75.7 -295.5)"/><path class="cls-1" d="M169,297.6v4.1h3.2V304H169v10.6a2.5,2.5,0,0,0,.4,1.6,2.1,2.1,0,0,0,1.5.5l1.3-.2v2.4a8.3,8.3,0,0,1-2.2.3,3.8,3.8,0,0,1-3-1.2,5.5,5.5,0,0,1-1-3.4V304h-3.1v-2.3H166v-4.1Z" transform="translate(-75.7 -295.5)"/><path class="cls-1" d="M178.3,316.5h10.1v2.4H174.8v-2.2l9.4-12.6h-9.3v-2.4h13v2.1Z" transform="translate(-75.7 -295.5)"/><path class="cls-1" d="M190.6,310.1a11,11,0,0,1,1-4.5,7.7,7.7,0,0,1,2.8-3.1,7.7,7.7,0,0,1,4-1.1,7.3,7.3,0,0,1,5.7,2.4,9.6,9.6,0,0,1,2.1,6.5v.2a11,11,0,0,1-.9,4.5,8.4,8.4,0,0,1-2.8,3.1,7.5,7.5,0,0,1-4,1.1,7.2,7.2,0,0,1-5.7-2.4,9.8,9.8,0,0,1-2.2-6.5Zm3,.4a7.4,7.4,0,0,0,1.3,4.6,4.5,4.5,0,0,0,3.6,1.7A4.2,4.2,0,0,0,202,315a7.7,7.7,0,0,0,1.3-4.9,7.1,7.1,0,0,0-1.3-4.5,4.3,4.3,0,0,0-3.6-1.8,4.4,4.4,0,0,0-3.5,1.7A8,8,0,0,0,193.6,310.5Z" transform="translate(-75.7 -295.5)"/><path class="cls-1" d="M235.2,310.9a10.1,10.1,0,0,1-1.9,6.1,5.5,5.5,0,0,1-4.5,2.2,3.5,3.5,0,0,1-3.8-2.7,6.3,6.3,0,0,1-2,2,3.9,3.9,0,0,1-2.3.7,3.7,3.7,0,0,1-3.4-1.9,7.7,7.7,0,0,1-.8-5,11.6,11.6,0,0,1,1.2-4.7,8,8,0,0,1,2.4-3.2,5.1,5.1,0,0,1,3.2-1.2,8,8,0,0,1,2.3.3,10.1,10.1,0,0,1,2.3,1.4l-.8,8.8c-.2,2.4.4,3.6,2,3.6a3.4,3.4,0,0,0,2.9-1.8,9.7,9.7,0,0,0,1.2-4.6c.2-4.1-.6-7.2-2.3-9.4s-4.4-3.2-7.9-3.2a10.3,10.3,0,0,0-9.5,6.1,16.7,16.7,0,0,0-1.6,6.9,16.1,16.1,0,0,0,.9,6.8,9.1,9.1,0,0,0,3.5,4.4,9.5,9.5,0,0,0,5.6,1.6,14.5,14.5,0,0,0,2.9-.4,6.7,6.7,0,0,0,2.4-.9l.6,1.8a7.8,7.8,0,0,1-2.6,1,12.4,12.4,0,0,1-3.3.4,13.2,13.2,0,0,1-6.8-1.7,10.6,10.6,0,0,1-4.3-5.2,17.3,17.3,0,0,1-1.2-7.8,18,18,0,0,1,1.9-7.8,13.3,13.3,0,0,1,4.8-5.4,12.2,12.2,0,0,1,6.8-1.9,12.5,12.5,0,0,1,6.8,1.8,11,11,0,0,1,4.1,5.1A16.1,16.1,0,0,1,235.2,310.9ZM219,312.3a5.8,5.8,0,0,0,.4,3.4,2.1,2.1,0,0,0,2,1.2,2.9,2.9,0,0,0,1.9-.8,5.6,5.6,0,0,0,1.4-2.3h0l.8-8a4.5,4.5,0,0,0-1.9-.5,3.7,3.7,0,0,0-3.1,1.9A11.9,11.9,0,0,0,219,312.3Z" transform="translate(-75.7 -295.5)"/><path class="cls-1" d="M249.6,318.9a12.7,12.7,0,0,1-.4-1.8,6.5,6.5,0,0,1-4.9,2.1,5.9,5.9,0,0,1-4.1-1.5,4.4,4.4,0,0,1-1.6-3.6,4.5,4.5,0,0,1,2-4.1,9.6,9.6,0,0,1,5.7-1.5h2.9v-1.4a3.2,3.2,0,0,0-.9-2.4,4.1,4.1,0,0,0-2.8-.9,3.8,3.8,0,0,0-2.6.8,2.2,2.2,0,0,0-1,1.9h-3a4,4,0,0,1,.9-2.5,6.9,6.9,0,0,1,2.5-1.9,7.7,7.7,0,0,1,3.4-.7,7,7,0,0,1,4.7,1.5,5.2,5.2,0,0,1,1.7,4.1v7.9a9.5,9.5,0,0,0,.6,3.7v.3Zm-4.8-2.3a4.8,4.8,0,0,0,2.6-.7,5.2,5.2,0,0,0,1.8-1.8v-3.6h-2.3c-3.6,0-5.4,1.1-5.4,3.2a2.9,2.9,0,0,0,.9,2.2A3.6,3.6,0,0,0,244.8,316.6Z" transform="translate(-75.7 -295.5)"/><path class="cls-1" d="M265,304.4l-1.5-.2a4,4,0,0,0-3.9,2.5v12.2h-2.9V301.7h2.9v2a4.7,4.7,0,0,1,4.1-2.3l1.3.2Z" transform="translate(-75.7 -295.5)"/><path class="cls-1" d="M272.4,297.6v4.1h3.2V304h-3.2v10.6a2.5,2.5,0,0,0,.5,1.6,1.8,1.8,0,0,0,1.4.5l1.4-.2v2.4a8.3,8.3,0,0,1-2.2.3,3.8,3.8,0,0,1-3-1.2,5.5,5.5,0,0,1-1-3.4V304h-3.1v-2.3h3.1v-4.1Z" transform="translate(-75.7 -295.5)"/><path class="cls-1" d="M281.8,316.5h10.1v2.4H278.2v-2.2l9.5-12.6h-9.3v-2.4h13v2.1Z" transform="translate(-75.7 -295.5)"/><path class="cls-1" d="M300.8,314.6l4-12.9h3.1L301,321.5c-1.1,2.9-2.8,4.3-5.1,4.3h-.5l-1.1-.2v-2.3h.8a3.2,3.2,0,0,0,3.6-2.8l.7-1.7-6.1-17h3.2Z" transform="translate(-75.7 -295.5)"/><path class="cls-1" d="M318.8,304.4l-1.5-.2a4,4,0,0,0-3.9,2.5v12.2h-2.9V301.7h2.9v2a4.7,4.7,0,0,1,4.1-2.3l1.3.2Z" transform="translate(-75.7 -295.5)"/><path class="cls-1" d="M328.3,319.2a7.8,7.8,0,0,1-5.7-2.3,8.8,8.8,0,0,1-2.2-6.1v-.6a10.6,10.6,0,0,1,1-4.5,8.6,8.6,0,0,1,2.7-3.2,7.6,7.6,0,0,1,3.8-1.1,6.2,6.2,0,0,1,5.2,2.2,9.3,9.3,0,0,1,1.9,6.3v1.2H323.4a6,6,0,0,0,1.4,4.1,4.6,4.6,0,0,0,3.6,1.6,5.4,5.4,0,0,0,2.7-.6,10.1,10.1,0,0,0,1.9-1.7l1.8,1.4A7.3,7.3,0,0,1,328.3,319.2Zm-.4-15.4a3.9,3.9,0,0,0-3,1.3,5.9,5.9,0,0,0-1.4,3.6H332v-.2a5,5,0,0,0-1.2-3.5A3.6,3.6,0,0,0,327.9,303.8Z" transform="translate(-75.7 -295.5)"/><path class="cls-1" d="M342.3,297.6v4.1h3.2V304h-3.2v10.6a2.5,2.5,0,0,0,.5,1.6,1.8,1.8,0,0,0,1.4.5l1.4-.2v2.4l-2.2.3a3.8,3.8,0,0,1-3-1.2,4.9,4.9,0,0,1-1-3.4V304h-3.1v-2.3h3.1v-4.1Z" transform="translate(-75.7 -295.5)"/><path class="cls-1" d="M351.7,316.5h10v2.4H348.1v-2.2l9.5-12.6h-9.3v-2.4h13v2.1Z" transform="translate(-75.7 -295.5)"/><path class="cls-1" d="M364,310.1a9.6,9.6,0,0,1,1-4.5,7.7,7.7,0,0,1,2.8-3.1,7.9,7.9,0,0,1,9.7,1.3,9.6,9.6,0,0,1,2.1,6.5v.2a11,11,0,0,1-.9,4.5,8.4,8.4,0,0,1-2.8,3.1,7.8,7.8,0,0,1-4.1,1.1,7.1,7.1,0,0,1-5.6-2.4,9.3,9.3,0,0,1-2.2-6.5Zm3,.4a7.4,7.4,0,0,0,1.3,4.6,4.5,4.5,0,0,0,7.1-.1,8.4,8.4,0,0,0,1.3-4.9,7.1,7.1,0,0,0-1.4-4.5,4,4,0,0,0-3.5-1.8,4.3,4.3,0,0,0-3.5,1.7A8,8,0,0,0,367,310.5Z" transform="translate(-75.7 -295.5)"/><path class="cls-1" d="M383.4,317.3a1.6,1.6,0,0,1,.4-1.2,1.6,1.6,0,0,1,1.4-.5,1.4,1.4,0,0,1,1.3.5,1.7,1.7,0,0,1,0,2.4,1.4,1.4,0,0,1-1.3.5,1.6,1.6,0,0,1-1.4-.5A1.6,1.6,0,0,1,383.4,317.3Z" transform="translate(-75.7 -295.5)"/><path class="cls-1" d="M398.7,316.8a3.6,3.6,0,0,0,2.7-1,2.9,2.9,0,0,0,1.3-2.3h2.8a5.3,5.3,0,0,1-1,2.8,6.4,6.4,0,0,1-2.5,2.1,7.3,7.3,0,0,1-3.3.8,7.1,7.1,0,0,1-5.6-2.4,9.3,9.3,0,0,1-2-6.3V310a10.6,10.6,0,0,1,.9-4.5,7,7,0,0,1,2.6-3,7.8,7.8,0,0,1,4.1-1.1,7.2,7.2,0,0,1,4.8,1.7,6.3,6.3,0,0,1,2,4.5h-2.8a3.8,3.8,0,0,0-1.2-2.7,4.1,4.1,0,0,0-2.8-1.1,4.3,4.3,0,0,0-3.5,1.6,7.8,7.8,0,0,0-1.2,4.7v.5a7.6,7.6,0,0,0,1.2,4.6A4.1,4.1,0,0,0,398.7,316.8Z" transform="translate(-75.7 -295.5)"/><path class="cls-1" d="M408,310.1a11,11,0,0,1,1-4.5,7.7,7.7,0,0,1,2.8-3.1,7.7,7.7,0,0,1,4-1.1,7.5,7.5,0,0,1,5.7,2.4,9.6,9.6,0,0,1,2.1,6.5v.2a11,11,0,0,1-.9,4.5,8.4,8.4,0,0,1-2.8,3.1,7.6,7.6,0,0,1-4.1,1.1,7.1,7.1,0,0,1-5.6-2.4,9.8,9.8,0,0,1-2.2-6.5Zm3,.4a7.4,7.4,0,0,0,1.3,4.6,4.4,4.4,0,0,0,3.5,1.7,4.3,4.3,0,0,0,3.6-1.8,7.7,7.7,0,0,0,1.3-4.9,7.1,7.1,0,0,0-1.3-4.5,4.3,4.3,0,0,0-3.6-1.8,4.4,4.4,0,0,0-3.5,1.7A8,8,0,0,0,411,310.5Z" transform="translate(-75.7 -295.5)"/><path class="cls-1" d="M430.1,301.7v1.9a6.1,6.1,0,0,1,5-2.2c2.4,0,4.1.9,4.9,2.8a5.6,5.6,0,0,1,2.3-2,6.6,6.6,0,0,1,3.2-.8q5.7,0,5.7,6v11.5h-2.9V307.6a4.3,4.3,0,0,0-.8-2.8,3.9,3.9,0,0,0-2.9-.9,3.9,3.9,0,0,0-2.7,1,3.8,3.8,0,0,0-1.2,2.6v11.4h-3V307.6c0-2.5-1.2-3.7-3.6-3.7a4,4,0,0,0-4,2.4v12.6h-2.9V301.7Z" transform="translate(-75.7 -295.5)"/></svg>